<?xml version="1.0" standalone="no"?>
<!DOCTYPE svg PUBLIC "-//W3C//DTD SVG 20010904//EN"
 "http://www.w3.org/TR/2001/REC-SVG-20010904/DTD/svg10.dtd">
<svg version="1.0" xmlns="http://www.w3.org/2000/svg"
 width="1024.000000pt" height="768.000000pt" viewBox="0 0 1024.000000 768.000000"
 preserveAspectRatio="xMidYMid meet">

<g transform="translate(0.000000,768.000000) scale(0.100000,-0.100000)"
fill="#000000" stroke="none">
<path d="M4834 5580 c-26 -10 -54 -48 -54 -71 0 -9 9 -28 21 -43 16 -20 29
-26 59 -26 30 0 43 6 59 26 27 34 26 57 -1 88 -27 29 -55 38 -84 26z"/>
<path d="M5079 5577 c-31 -24 -42 -56 -29 -87 25 -61 115 -61 140 0 27 65 -55
130 -111 87z"/>
<path d="M5354 5580 c-26 -10 -54 -48 -54 -71 0 -9 9 -28 21 -43 16 -20 29
-26 59 -26 30 0 43 6 59 26 27 34 26 57 -1 88 -27 29 -55 38 -84 26z"/>
<path d="M4559 5557 c-31 -24 -42 -56 -29 -87 31 -76 150 -52 150 30 0 51 -80
89 -121 57z"/>
<path d="M5585 5545 c-41 -40 -30 -92 25 -115 61 -25 129 36 99 92 -28 53 -84
64 -124 23z"/>
<path d="M4302 5533 c-24 -10 -43 -60 -32 -88 11 -28 64 -56 89 -47 29 10 61
45 61 67 0 38 -37 75 -73 74 -18 0 -38 -3 -45 -6z"/>
<path d="M5842 5517 c-28 -30 -28 -68 1 -94 32 -29 49 -33 85 -17 42 17 57 55
37 93 -24 48 -87 57 -123 18z"/>
<path d="M4053 5500 c-48 -20 -58 -87 -17 -119 35 -28 75 -27 102 2 31 33 29
80 -4 106 -29 23 -46 25 -81 11z"/>
<path d="M6106 5489 c-34 -27 -36 -77 -3 -107 71 -67 171 35 102 103 -30 30
-64 32 -99 4z"/>
<path d="M3781 5441 c-19 -14 -25 -29 -25 -56 0 -49 34 -78 84 -71 66 10 91
76 45 121 -29 30 -70 32 -104 6z"/>
<path d="M6355 5435 c-45 -44 -23 -109 39 -121 87 -16 129 99 49 135 -37 17
-62 13 -88 -14z"/>
<path d="M3525 5375 c-14 -13 -25 -36 -25 -50 0 -31 41 -75 69 -75 57 0 104
57 82 99 -29 53 -88 65 -126 26z"/>
<path d="M6622 5384 c-12 -8 -27 -24 -33 -35 -22 -42 25 -99 82 -99 28 0 69
44 69 75 0 32 -41 75 -72 75 -13 0 -34 -7 -46 -16z"/>
<path d="M4797 5360 c-760 -41 -1416 -193 -1932 -445 -246 -121 -431 -250
-581 -406 -95 -100 -152 -181 -205 -293 -21 -44 -39 -75 -39 -68 0 7 -4 10
-10 7 -6 -4 -7 1 -3 12 3 10 -10 1 -29 -19 -30 -32 -42 -38 -77 -38 -32 0 -48
7 -73 30 -25 24 -34 28 -45 18 -8 -6 -13 -7 -12 -2 1 5 1 16 -1 24 -2 24 -29
-56 -36 -111 -4 -27 -10 -47 -14 -44 -4 2 -10 -18 -13 -45 -10 -86 22 -300 45
-300 6 0 8 -7 4 -15 -3 -8 -1 -15 4 -15 6 0 10 -6 10 -14 0 -8 23 -59 50 -115
120 -238 309 -436 610 -634 789 -520 2089 -764 3360 -631 1110 116 2059 526
2465 1065 68 91 175 283 175 315 0 8 5 14 11 14 6 0 9 7 5 15 -3 8 -2 15 3 15
12 0 31 78 41 171 10 84 2 199 -11 177 -6 -9 -9 -5 -9 13 0 30 -35 167 -45
177 -4 4 -4 -5 0 -19 7 -28 -8 -48 -20 -28 -5 6 -14 -1 -25 -19 -10 -16 -31
-34 -47 -39 -39 -14 -94 5 -110 37 -7 14 -13 20 -13 13 0 -7 -7 -10 -16 -6
-12 4 -14 0 -9 -23 4 -16 -9 6 -28 48 -65 144 -124 229 -245 351 -377 382
-1095 665 -1986 783 -311 41 -837 61 -1149 44z m628 -179 c50 -22 91 -69 105
-119 14 -53 12 -81 -10 -130 l-20 -43 22 -42 c47 -93 11 -215 -78 -264 -40
-22 -48 -23 -390 -23 l-349 -1 -3 80 -3 81 61 0 c57 0 60 -1 60 -25 l0 -25
110 0 111 0 -3 73 -3 72 -35 0 c-27 0 -36 -4 -38 -20 -2 -18 -10 -20 -60 -19
l-57 2 -3 106 -3 106 56 0 c66 0 70 -1 69 -18 -2 -14 39 -27 61 -18 11 4 15
21 15 61 l0 55 -109 0 c-106 0 -110 -1 -113 -22 -3 -20 -10 -23 -60 -26 l-58
-3 0 91 0 90 343 0 c310 0 346 -2 382 -19z m-819 -771 c22 0 33 -4 29 -10 -4
-7 2 -9 17 -5 47 11 181 -92 240 -184 15 -25 28 -49 28 -55 0 -5 -14 12 -31
40 -36 56 -90 115 -134 147 -25 18 -23 13 13 -29 64 -73 59 -60 69 -166 l5
-58 -80 0 -80 0 -11 44 c-6 26 -21 53 -36 64 -59 46 -147 32 -185 -30 -19 -31
-20 -50 -20 -286 0 -278 4 -298 60 -327 38 -20 110 -19 139 1 33 24 51 74 51
144 l0 60 -55 0 -56 0 3 68 3 67 133 3 134 3 -4 -173 c-3 -163 -5 -176 -30
-223 -52 -99 -126 -139 -258 -139 -106 0 -159 23 -229 100 -79 86 -82 104 -79
435 3 269 4 286 25 326 12 22 19 44 15 49 -4 4 -1 3 7 -1 11 -6 13 -4 8 9 -4
9 -3 15 2 12 4 -3 19 7 32 22 l24 27 -24 -20 c-14 -11 -21 -15 -17 -8 3 7 21
22 39 35 28 20 30 20 18 3 -8 -11 -2 -7 13 8 16 16 34 26 43 23 9 -4 11 -2 7
6 -5 8 -2 9 9 5 10 -3 17 -2 17 3 0 9 74 19 98 13 8 -2 29 -3 48 -3z m-1641
-30 c4 -6 16 -8 27 -4 14 4 18 2 14 -5 -7 -11 -6 -12 32 -16 35 -4 202 -175
202 -207 0 -6 -20 16 -43 48 -42 57 -87 104 -87 91 0 -3 10 -22 21 -42 50 -85
31 -233 -40 -304 l-36 -36 39 -30 c122 -93 122 -298 1 -419 -64 -64 -86 -69
-306 -74 l-196 -4 -7 468 c-4 258 -8 485 -10 505 l-4 37 193 1 c129 1 196 -2
200 -9z m695 -38 l40 -47 -2 -110 -2 -110 -3 110 c-4 103 -5 111 -31 137 -42
44 -59 51 -65 28 -3 -13 -1 -18 6 -14 8 5 7 2 0 -7 -10 -10 -13 -97 -13 -362
l0 -349 34 -34 c27 -27 42 -34 73 -34 46 0 100 31 108 62 3 13 5 192 3 399
l-3 377 110 0 110 0 43 -41 42 -41 -2 -136 -2 -135 -3 130 -4 130 -36 37 c-21
21 -40 38 -43 38 -4 0 -7 -19 -7 -42 -1 -24 -5 -203 -10 -398 l-8 -355 -30
-54 c-57 -103 -180 -170 -286 -158 -109 13 -205 83 -251 182 -22 49 -23 60
-28 435 -3 212 -8 390 -13 397 -5 8 23 11 113 11 l120 0 40 -46z m1943 -5 c33
-39 47 -67 56 -110 7 -32 11 -61 8 -63 -2 -2 -10 23 -17 57 -11 50 -22 70 -61
112 -35 37 -49 47 -49 34 0 -10 5 -15 10 -12 7 4 9 -3 6 -19 -3 -18 -1 -24 6
-20 8 5 9 1 5 -10 -4 -9 4 -67 18 -129 27 -124 111 -497 150 -669 14 -60 23
-113 20 -118 -3 -4 -44 -9 -90 -9 -99 -1 -94 -6 -115 117 l-13 72 -143 0 -144
0 -6 -27 c-3 -16 -13 -57 -23 -93 l-16 -65 -93 -3 c-63 -2 -92 1 -92 8 0 7 49
209 110 450 61 245 107 446 103 456 -5 13 -3 15 7 9 10 -6 11 -2 6 19 -4 16
-2 26 4 26 7 0 9 8 5 19 -6 19 0 20 149 20 l155 0 44 -52z m890 5 c37 -36 47
-53 46 -77 l-1 -30 -7 30 c-7 27 -38 65 -84 104 -15 12 -17 11 -16 -5 1 -11 1
-52 1 -92 l-2 -73 -102 2 c-94 2 -103 0 -104 -17 0 -11 -1 -196 -2 -412 l-2
-393 -92 3 -93 3 -3 410 -2 410 -100 -3 c-76 -3 -101 0 -104 10 -3 7 -7 50
-10 96 l-5 82 317 0 317 -1 48 -47z m765 5 l42 -41 -2 -81 -2 -80 -3 76 c-4
74 -5 76 -47 118 l-44 43 -1 -85 c-1 -77 1 -88 21 -109 13 -13 29 -32 37 -43
8 -11 -4 -2 -26 20 l-39 40 -102 0 -102 0 -2 -410 -3 -410 -92 -3 -93 -3 0
413 0 413 -100 -3 c-76 -3 -101 0 -104 10 -3 7 -6 50 -9 95 l-4 83 316 -1 316
-1 43 -41z m357 -4 l45 -48 -2 -110 -2 -110 -3 109 c-4 109 -4 110 -36 140
-72 69 -65 113 -67 -436 0 -271 -4 -496 -9 -501 -4 -4 -46 -7 -92 -5 l-84 3
-3 489 c-1 322 -6 493 -13 502 -8 10 14 13 106 13 l115 1 45 -47z m-1078 -150
c-3 -10 -5 -4 -5 12 0 17 2 24 5 18 2 -7 2 -21 0 -30z m-637 -80 c0 -8 -9 0
-50 45 l-45 47 48 -45 c26 -24 47 -45 47 -47z m580 52 c19 -19 31 -35 27 -35
-8 0 -67 58 -67 65 0 9 7 5 40 -30z m140 0 c19 -19 32 -35 29 -35 -3 0 -20 16
-39 35 -19 19 -32 35 -29 35 3 0 20 -16 39 -35z m-4583 -57 c-3 -8 -6 -5 -6 6
-1 11 2 17 5 13 3 -3 4 -12 1 -19z m2600 16 c-3 -3 -12 -4 -19 -1 -8 3 -5 6 6
6 11 1 17 -2 13 -5z m2048 -22 c-3 -3 -11 0 -18 7 -9 10 -8 11 6 5 10 -3 15
-9 12 -12z m-1804 -49 c13 -16 12 -17 -3 -4 -17 13 -22 21 -14 21 2 0 10 -8
17 -17z m-3051 -178 c11 -13 10 -14 -4 -9 -9 3 -16 10 -16 15 0 13 6 11 20 -6z
m6510 -5 c13 -8 13 -10 -2 -10 -9 0 -20 5 -23 10 -8 13 5 13 25 0z m75 0 c-3
-5 -12 -10 -18 -10 -7 0 -6 4 3 10 19 12 23 12 15 0z m-6538 -16 c-3 -3 -12
-4 -19 -1 -8 3 -5 6 6 6 11 1 17 -2 13 -5z m327 -389 c593 -773 2435 -1163
4066 -859 927 173 1622 551 1866 1016 47 89 56 98 24 23 -57 -134 -194 -300
-353 -428 -688 -557 -2040 -833 -3387 -692 -606 64 -1202 230 -1620 452 -347
184 -607 422 -711 651 -42 92 -35 90 15 -6 24 -45 69 -116 100 -157z m-249
145 c-3 -5 -14 -10 -23 -9 -14 0 -13 2 3 9 27 11 27 11 20 0z m6356 -8 c-7 -2
-18 1 -23 6 -8 8 -4 9 13 5 13 -4 18 -8 10 -11z m-6094 -428 c-3 -3 -12 -4
-19 -1 -8 3 -5 6 6 6 11 1 17 -2 13 -5z m5653 -164 c-8 -5 -24 -9 -35 -9 -16
1 -16 2 5 9 35 11 48 11 30 0z m-5457 -7 c-7 -2 -19 -2 -25 0 -7 3 -2 5 12 5
14 0 19 -2 13 -5z m712 -363 c-3 -5 -21 -9 -38 -9 l-32 2 35 7 c19 4 36 8 38
9 2 0 0 -3 -3 -9z m4048 -7 c-7 -2 -21 -2 -30 0 -10 3 -4 5 12 5 17 0 24 -2
18 -5z m-3810 -85 c-2 -5 -17 -8 -33 -8 -16 0 -31 3 -33 8 -3 4 12 7 33 7 21
0 36 -3 33 -7z m3584 0 c-16 -10 -64 -10 -70 0 -3 4 15 7 38 7 24 0 39 -3 32
-7z m-242 -68 c-3 -5 -16 -10 -28 -9 -20 1 -20 2 3 9 14 4 26 8 28 9 2 1 0 -3
-3 -9z m-3138 -6 c-3 -3 -12 -4 -19 -1 -8 3 -5 6 6 6 11 1 17 -2 13 -5z m2888
-54 c-3 -5 -14 -10 -23 -9 -14 0 -13 2 3 9 27 11 27 11 20 0z m-2638 -6 c-3
-3 -12 -4 -19 -1 -8 3 -5 6 6 6 11 1 17 -2 13 -5z m50 0 c-3 -3 -12 -4 -19 -1
-8 3 -5 6 6 6 11 1 17 -2 13 -5z m2537 -3 c4 -5 -3 -7 -14 -4 -23 6 -26 13 -6
13 8 0 17 -4 20 -9z m-2279 -41 c-3 -5 -14 -10 -23 -9 -14 0 -13 2 3 9 27 11
27 11 20 0z m2016 -8 c-7 -2 -18 1 -23 6 -8 8 -4 9 13 5 13 -4 18 -8 10 -11z
m54 8 c-3 -5 -14 -10 -23 -9 -14 0 -13 2 3 9 27 11 27 11 20 0z m-2118 -6 c-3
-3 -12 -4 -19 -1 -8 3 -5 6 6 6 11 1 17 -2 13 -5z m309 -29 c-22 -17 -64 -19
-86 -5 -10 6 -4 8 21 4 20 -4 45 -1 55 5 27 15 32 13 10 -4z m1551 -7 c-7 -4
-23 -8 -37 -8 -14 0 -30 4 -37 8 -6 4 11 7 37 7 26 0 43 -3 37 -7z m-1295 -20
c-15 -15 -58 -18 -75 -6 -15 11 -11 13 32 13 28 0 47 -3 43 -7z m1008 -9 c0
-13 -24 -11 -45 4 -16 13 -15 14 13 9 18 -2 32 -8 32 -13z m35 11 c-3 -5 -12
-10 -18 -10 -7 0 -6 4 3 10 19 12 23 12 15 0z m-259 -15 c-23 -17 -64 -19 -86
-5 -11 7 -7 8 15 4 17 -3 41 -1 55 5 35 14 38 13 16 -4z m-529 -7 c-7 -4 -23
-8 -37 -8 -14 0 -30 4 -37 8 -6 4 11 7 37 7 26 0 43 -3 37 -7z m265 0 c-15
-15 -58 -18 -75 -6 -15 11 -11 13 32 13 28 0 47 -3 43 -7z"/>
<path d="M4720 5116 l0 -66 40 0 c36 0 40 3 40 25 l0 25 130 0 130 0 0 -85 0
-86 -57 3 c-48 2 -58 6 -57 21 2 14 -6 17 -43 17 l-44 0 3 -87 3 -88 38 -3
c32 -3 39 0 44 17 5 18 13 21 59 21 l54 0 0 -85 0 -85 -129 0 c-127 0 -130 0
-133 23 -2 17 -10 23 -40 25 l-36 3 -4 -61 c-1 -34 0 -66 3 -72 3 -5 138 -8
345 -6 334 3 340 3 376 26 53 33 93 116 84 176 -4 25 -18 60 -30 79 l-24 34
21 34 c47 73 18 182 -61 231 -36 23 -42 23 -374 26 l-338 3 0 -65z m681 -45
c36 -36 37 -70 5 -108 -24 -27 -27 -28 -128 -28 l-103 0 -3 69 c-2 38 -1 75 2
83 4 10 30 13 101 13 93 0 98 -1 126 -29z m8 -265 c15 -16 23 -37 23 -61 0
-24 -8 -45 -23 -61 -21 -22 -29 -24 -126 -24 l-103 0 0 63 c0 34 -3 72 -6 85
-6 22 -6 22 103 22 103 0 111 -1 132 -24z"/>
<path d="M5192 5013 l3 -58 79 -3 c57 -2 84 1 101 12 32 21 40 52 21 81 -16
24 -22 25 -112 25 l-95 0 3 -57z"/>
<path d="M5198 4814 c-5 -4 -8 -38 -8 -76 l0 -68 90 0 c84 0 93 2 117 26 20
20 24 31 19 57 -11 53 -28 62 -124 65 -48 2 -90 0 -94 -4z"/>
<path d="M3080 4315 c13 -14 26 -25 28 -25 3 0 -5 11 -18 25 -13 14 -26 25
-28 25 -3 0 5 -11 18 -25z"/>
<path d="M2778 4105 l-3 -125 58 0 c104 0 144 42 135 142 -4 42 -11 57 -37 80
-27 24 -40 28 -91 28 l-59 0 -3 -125z m99 3 c-3 -7 -5 -2 -5 12 0 14 2 19 5
13 2 -7 2 -19 0 -25z"/>
<path d="M2778 3834 c-2 -5 -4 -76 -4 -159 l1 -150 57 -3 c100 -5 151 36 164
132 8 55 -14 121 -51 156 -19 18 -39 24 -93 28 -38 2 -71 1 -74 -4z"/>
<path d="M5346 3992 c-27 -120 -51 -227 -54 -239 -4 -23 -3 -23 102 -23 58 0
106 2 106 4 0 9 -100 469 -102 471 -2 2 -25 -94 -52 -213z"/>
<path d="M3304 5320 c-26 -10 -54 -48 -54 -73 0 -29 45 -67 80 -67 36 0 80 38
80 69 0 24 -38 68 -65 74 -11 3 -30 2 -41 -3z"/>
<path d="M6884 5320 c-26 -10 -54 -48 -54 -73 0 -10 11 -29 25 -42 34 -35 86
-34 114 1 27 34 26 57 -1 88 -27 29 -55 38 -84 26z"/>
<path d="M3053 5230 c-46 -19 -57 -83 -20 -118 67 -63 168 27 110 96 -21 25
-60 35 -90 22z"/>
<path d="M7123 5230 c-46 -19 -57 -83 -20 -118 67 -63 168 27 110 96 -21 25
-60 35 -90 22z"/>
<path d="M2791 5104 c-35 -45 -24 -92 28 -114 59 -24 120 32 99 91 -19 55 -92
68 -127 23z"/>
<path d="M7347 5118 c-26 -21 -37 -61 -23 -89 25 -50 93 -60 129 -17 23 27 22
59 -4 92 -23 29 -73 36 -102 14z"/>
<path d="M2565 4985 c-14 -13 -25 -36 -25 -50 0 -35 42 -75 78 -75 52 0 94 59
71 102 -28 53 -84 64 -124 23z"/>
<path d="M7579 4997 c-43 -33 -46 -80 -6 -117 44 -42 127 -5 127 55 0 55 -78
95 -121 62z"/>
<path d="M2375 4860 c-52 -20 -66 -89 -26 -122 73 -58 173 33 111 100 -12 12
-25 22 -30 22 -4 0 -14 2 -22 4 -7 3 -22 1 -33 -4z"/>
<path d="M7811 4859 c-53 -21 -67 -81 -28 -116 32 -29 49 -33 85 -17 90 37 34
169 -57 133z"/>
<path d="M2173 4690 c-46 -19 -57 -86 -21 -120 46 -43 128 -11 128 49 0 54
-57 92 -107 71z"/>
<path d="M8003 4690 c-46 -19 -57 -86 -21 -120 46 -43 128 -11 128 49 0 54
-57 92 -107 71z"/>
<path d="M1985 4475 c-32 -31 -33 -74 -2 -103 45 -42 118 -20 133 40 5 22 0
33 -24 58 -37 37 -74 39 -107 5z"/>
<path d="M8148 4470 c-24 -25 -29 -36 -23 -58 15 -64 83 -86 130 -42 33 31 33
73 0 105 -33 34 -70 32 -107 -5z"/>
<path d="M1869 4257 c-42 -33 -43 -91 -1 -123 47 -36 132 4 132 61 0 57 -85
97 -131 62z"/>
<path d="M8265 4245 c-14 -13 -25 -36 -25 -50 0 -37 42 -75 82 -75 40 1 64 17
78 54 28 74 -77 130 -135 71z"/>
</g>
</svg>
